<?xml version="1.0" encoding="utf-8"?>
<svg viewBox="0.263 3.044 107 33" width="107px" height="33px" xmlns="http://www.w3.org/2000/svg">
  <text style="white-space: pre; fill: rgb(51, 51, 51); font-family: Arial, sans-serif; font-size: 6.4px;" x="55.225" y="38.934"> </text>
  <path d="M 11.520000004529953 33.104998474121096 Q 9.354000004529953 33.104998474121096 7.397000004529953 32.553998474121094 Q 5.440000004529953 32.00299847412109 3.9200000045299532 30.900998474121096 Q 2.4000000045299528 29.798998474121095 1.507000004529953 28.164998474121095 Q 0.614000004529953 26.530998474121095 0.538000004529953 24.364998474121094 Q 0.538000004529953 24.022998474121096 0.7660000045299529 23.775998474121096 Q 0.9940000045299531 23.528998474121096 1.374000004529953 23.528998474121096 L 6.504000004529953 23.528998474121096 Q 7.036000004529953 23.528998474121096 7.321000004529953 23.794998474121094 Q 7.606000004529953 24.060998474121092 7.796000004529953 24.592998474121096 Q 8.024000004529952 25.656998474121096 8.537000004529952 26.321998474121095 Q 9.050000004529952 26.986998474121094 9.867000004529952 27.309998474121095 Q 10.684000004529953 27.632998474121095 11.710000004529952 27.632998474121095 Q 13.610000004529953 27.632998474121095 14.636000004529953 26.397998474121096 Q 15.662000004529952 25.162998474121096 15.662000004529952 22.768998474121094 L 15.662000004529952 11.786998474121095 L 3.350000004529953 11.786998474121095 Q 2.970000004529953 11.786998474121095 2.685000004529953 11.520998474121093 Q 2.4000000045299528 11.254998474121095 2.4000000045299528 10.836998474121096 L 2.4000000045299528 7.074998474121095 Q 2.4000000045299528 6.656998474121096 2.685000004529953 6.390998474121094 Q 2.970000004529953 6.124998474121096 3.350000004529953 6.124998474121096 L 21.742000004529952 6.124998474121096 Q 22.16000000452995 6.124998474121096 22.445000004529952 6.390998474121094 Q 22.730000004529952 6.656998474121096 22.730000004529952 7.074998474121095 L 22.730000004529952 22.958998474121096 Q 22.730000004529952 26.264998474121093 21.30500000452995 28.525998474121096 Q 19.880000004529954 30.786998474121095 17.353000004529953 31.945998474121094 Q 14.826000004529952 33.104998474121096 11.520000004529953 33.104998474121096 Z M 33.248872680664064 33.104998474121096 Q 31.19687268066406 33.104998474121096 29.581872680664063 32.32599847412109 Q 27.96687268066406 31.546998474121093 27.01687268066406 30.216998474121095 Q 26.066872680664062 28.886998474121093 26.066872680664062 27.214998474121096 Q 26.066872680664062 24.516998474121095 28.270872680664063 22.939998474121094 Q 30.474872680664063 21.362998474121092 34.12287268066406 20.79299847412109 L 38.87287268066406 20.070998474121094 L 38.87287268066406 19.538998474121094 Q 38.87287268066406 18.17099847412109 38.302872680664066 17.448998474121094 Q 37.73287268066406 16.726998474121096 36.21287268066406 16.726998474121096 Q 35.14887268066406 16.726998474121096 34.483872680664064 17.144998474121095 Q 33.818872680664064 17.562998474121095 33.43887268066406 18.284998474121096 Q 33.09687268066406 18.778998474121096 32.48887268066406 18.778998474121096 L 28.232872680664062 18.778998474121096 Q 27.814872680664063 18.778998474121096 27.58687268066406 18.531998474121096 Q 27.358872680664064 18.284998474121096 27.396872680664064 17.942998474121094 Q 27.396872680664064 17.258998474121093 27.909872680664062 16.365998474121096 Q 28.422872680664064 15.472998474121095 29.486872680664064 14.598998474121093 Q 30.550872680664064 13.724998474121094 32.22287268066406 13.154998474121093 Q 33.894872680664065 12.584998474121093 36.28887268066406 12.584998474121093 Q 38.72087268066406 12.584998474121093 40.46887268066406 13.154998474121093 Q 42.21687268066406 13.724998474121094 43.31887268066406 14.750998474121094 Q 44.42087268066406 15.776998474121093 44.93387268066407 17.163998474121094 Q 45.44687268066406 18.550998474121094 45.44687268066406 20.222998474121095 L 45.44687268066406 31.774998474121094 Q 45.44687268066406 32.15499847412109 45.16187268066406 32.4399984741211 Q 44.876872680664064 32.724998474121094 44.49687268066406 32.724998474121094 L 40.08887268066406 32.724998474121094 Q 39.67087268066406 32.724998474121094 39.40487268066406 32.4399984741211 Q 39.138872680664065 32.15499847412109 39.138872680664065 31.774998474121094 L 39.138872680664065 30.444998474121093 Q 38.644872680664065 31.166998474121094 37.80887268066407 31.774998474121094 Q 36.97287268066406 32.382998474121095 35.85187268066406 32.74399847412109 Q 34.73087268066406 33.104998474121096 33.248872680664064 33.104998474121096 Z M 35.034872680664066 28.772998474121096 Q 36.13687268066406 28.772998474121096 37.02987268066406 28.297998474121094 Q 37.922872680664064 27.822998474121093 38.43587268066406 26.815998474121095 Q 38.94887268066406 25.808998474121093 38.94887268066406 24.288998474121094 L 38.94887268066406 23.756998474121094 L 35.71887268066406 24.326998474121094 Q 33.93287268066406 24.630998474121093 33.11587268066406 25.257998474121095 Q 32.29887268066406 25.884998474121094 32.29887268066406 26.720998474121096 Q 32.29887268066406 27.366998474121093 32.678872680664064 27.822998474121093 Q 33.05887268066406 28.278998474121096 33.68587268066406 28.525998474121096 Q 34.312872680664064 28.772998474121096 35.034872680664066 28.772998474121096 Z M 58.82178366088867 33.104998474121096 Q 56.00978366088867 33.104998474121096 53.843783660888676 32.07899847412109 Q 51.67778366088867 31.052998474121093 50.40478366088867 29.095998474121092 Q 49.13178366088867 27.138998474121095 49.017783660888675 24.402998474121095 Q 48.97978366088867 23.794998474121094 48.97978366088867 22.863998474121097 Q 48.97978366088867 21.932998474121092 49.017783660888675 21.324998474121095 Q 49.13178366088867 18.550998474121094 50.38578366088867 16.593998474121094 Q 51.63978366088867 14.636998474121093 53.82478366088867 13.610998474121093 Q 56.00978366088867 12.584998474121093 58.82178366088867 12.584998474121093 Q 61.44378366088867 12.584998474121093 63.32478366088867 13.325998474121093 Q 65.20578366088867 14.066998474121092 66.36478366088868 15.168998474121093 Q 67.52378366088867 16.270998474121093 68.11278366088867 17.429998474121092 Q 68.70178366088868 18.588998474121095 68.73978366088868 19.462998474121093 Q 68.77778366088867 19.842998474121096 68.47378366088867 20.127998474121092 Q 68.16978366088867 20.412998474121096 67.78978366088867 20.412998474121096 L 62.96378366088867 20.412998474121096 Q 62.545783660888674 20.412998474121096 62.31778366088867 20.222998474121095 Q 62.08978366088867 20.032998474121094 61.89978366088867 19.652998474121095 Q 61.44378366088867 18.474998474121094 60.740783660888674 17.980998474121094 Q 60.03778366088867 17.486998474121094 58.935783660888674 17.486998474121094 Q 57.41578366088867 17.486998474121094 56.59878366088867 18.474998474121094 Q 55.78178366088867 19.462998474121093 55.70578366088867 21.514998474121093 Q 55.667783660888674 23.034998474121096 55.70578366088867 24.212998474121093 Q 55.819783660888675 26.302998474121093 56.61778366088867 27.252998474121092 Q 57.41578366088867 28.202998474121095 58.935783660888674 28.202998474121095 Q 60.11378366088867 28.202998474121095 60.79778366088867 27.689998474121094 Q 61.481783660888674 27.176998474121092 61.89978366088867 26.036998474121095 Q 62.08978366088867 25.656998474121096 62.31778366088867 25.466998474121095 Q 62.545783660888674 25.276998474121093 62.96378366088867 25.276998474121093 L 67.78978366088867 25.276998474121093 Q 68.16978366088867 25.276998474121093 68.47378366088867 25.542998474121095 Q 68.77778366088867 25.808998474121093 68.73978366088868 26.226998474121093 Q 68.70178366088868 26.834998474121093 68.35978366088867 27.708998474121096 Q 68.01778366088867 28.582998474121094 67.29578366088867 29.532998474121094 Q 66.57378366088867 30.482998474121093 65.41478366088867 31.280998474121095 Q 64.25578366088867 32.07899847412109 62.62178366088867 32.59199847412109 Q 60.987783660888674 33.104998474121096 58.82178366088867 33.104998474121096 Z M 73.1087022705078 32.724998474121094 Q 72.69070227050781 32.724998474121094 72.42470227050781 32.4399984741211 Q 72.15870227050782 32.15499847412109 72.15870227050782 31.774998474121094 L 72.15870227050782 6.694998474121096 Q 72.15870227050782 6.276998474121093 72.42470227050781 6.010998474121095 Q 72.69070227050781 5.744998474121093 73.1087022705078 5.744998474121093 L 77.5167022705078 5.744998474121093 Q 77.89670227050782 5.744998474121093 78.18170227050781 6.010998474121095 Q 78.46670227050781 6.276998474121093 78.46670227050781 6.694998474121096 L 78.46670227050781 19.424998474121097 L 83.7487022705078 13.610998474121093 Q 83.97670227050781 13.344998474121095 84.2427022705078 13.154998474121093 Q 84.50870227050781 12.964998474121096 85.00270227050781 12.964998474121096 L 90.09470227050781 12.964998474121096 Q 90.43670227050781 12.964998474121096 90.68370227050781 13.211998474121096 Q 90.93070227050781 13.458998474121096 90.93070227050781 13.800998474121094 Q 90.93070227050781 13.952998474121095 90.8737022705078 14.142998474121093 Q 90.81670227050782 14.332998474121094 90.62670227050782 14.446998474121095 L 83.78670227050782 21.818998474121095 L 91.57670227050781 31.280998474121095 Q 91.88070227050781 31.584998474121093 91.88070227050781 31.850998474121095 Q 91.88070227050781 32.230998474121094 91.63370227050781 32.477998474121094 Q 91.38670227050781 32.724998474121094 91.00670227050782 32.724998474121094 L 85.80070227050781 32.724998474121094 Q 85.2307022705078 32.724998474121094 84.96470227050781 32.51599847412109 Q 84.69870227050781 32.306998474121094 84.47070227050781 32.07899847412109 L 78.46670227050781 24.858998474121094 L 78.46670227050781 31.774998474121094 Q 78.46670227050781 32.15499847412109 78.18170227050781 32.4399984741211 Q 77.89670227050782 32.724998474121094 77.5167022705078 32.724998474121094 Z M 95.75096069335937 32.724998474121094 Q 95.33296069335937 32.724998474121094 95.06696069335938 32.4399984741211 Q 94.80096069335937 32.15499847412109 94.80096069335937 31.774998474121094 L 94.80096069335937 7.074998474121095 Q 94.80096069335937 6.656998474121096 95.06696069335938 6.390998474121094 Q 95.33296069335937 6.124998474121096 95.75096069335937 6.124998474121096 L 107.34096069335938 6.124998474121096 Q 110.60896069335938 6.124998474121096 112.69896069335937 7.036998474121095 Q 114.78896069335937 7.948998474121094 115.79596069335938 9.639998474121093 Q 116.80296069335938 11.330998474121095 116.80296069335938 13.648998474121093 Q 116.80296069335938 15.016998474121095 116.28996069335938 16.061998474121093 Q 115.77696069335937 17.10699847412109 115.03596069335937 17.790998474121096 Q 114.29496069335937 18.474998474121094 113.64896069335937 18.778998474121096 Q 115.09296069335937 19.462998474121093 116.21396069335938 21.020998474121093 Q 117.33496069335938 22.578998474121093 117.33496069335938 24.668998474121096 Q 117.33496069335938 27.176998474121092 116.21396069335938 28.981998474121095 Q 115.09296069335937 30.786998474121095 112.94596069335938 31.755998474121093 Q 110.79896069335938 32.724998474121094 107.68296069335938 32.724998474121094 Z M 101.64096069335938 27.784998474121096 L 106.92296069335937 27.784998474121096 Q 108.55696069335937 27.784998474121096 109.39296069335937 26.834998474121093 Q 110.22896069335937 25.884998474121094 110.22896069335937 24.668998474121096 Q 110.22896069335937 23.338998474121095 109.37396069335938 22.426998474121092 Q 108.51896069335938 21.514998474121093 106.92296069335937 21.514998474121093 L 101.64096069335938 21.514998474121093 Z M 101.64096069335938 16.688998474121092 L 106.58096069335937 16.688998474121092 Q 108.13896069335938 16.688998474121092 108.91796069335938 15.871998474121096 Q 109.69696069335937 15.054998474121096 109.69696069335937 13.838998474121095 Q 109.69696069335937 12.622998474121093 108.91796069335938 11.843998474121094 Q 108.13896069335938 11.064998474121094 106.58096069335937 11.064998474121094 L 101.64096069335938 11.064998474121094 Z" transform="matrix(0.8392230272293091, 0, 0, 1, -0.05402100458741188, 0)" style="fill: rgb(255, 255, 255); white-space: pre;"/>
  <path d="M 121.90348162841796 32.724998474121094 Q 121.48548162841797 32.724998474121094 121.21948162841797 32.4399984741211 Q 120.95348162841798 32.15499847412109 120.95348162841798 31.774998474121094 L 120.95348162841798 26.948998474121094 Q 120.95348162841798 26.530998474121095 121.21948162841797 26.264998474121093 Q 121.48548162841797 25.998998474121095 121.90348162841796 25.998998474121095 L 126.72948162841797 25.998998474121095 Q 127.10948162841797 25.998998474121095 127.39448162841796 26.264998474121093 Q 127.67948162841797 26.530998474121095 127.67948162841797 26.948998474121094 L 127.67948162841797 31.774998474121094 Q 127.67948162841797 32.15499847412109 127.39448162841796 32.4399984741211 Q 127.10948162841797 32.724998474121094 126.72948162841797 32.724998474121094 Z" transform="matrix(0.8392230272293091, 0, 0, 1, -0.05402100458741188, 0)" style="fill: rgb(255, 76, 97); white-space: pre;"/>
</svg>